<svg xmlns="http://www.w3.org/2000/svg" xml:space="preserve" width="800" height="800" style="shape-rendering:geometricPrecision;text-rendering:geometricPrecision;image-rendering:optimizeQuality;fill-rule:evenodd;clip-rule:evenodd" viewBox="0 0 67733.32 67733.32"><defs><style>.fil3{fill:#484b60}.fil10,.fil11,.fil3{fill-rule:nonzero}.fil11{fill:#cc7587}.fil10{fill:#df8c9a}.fil2,.fil4,.fil5{fill-rule:nonzero}.fil5{fill:#e1aa8c}.fil4{fill:#ffc15b}.fil2{fill:#fff}</style></defs><g id="Layer_x0020_1"><path d="M0 0h67733.32v67733.32H0z" style="fill:none"/><g id="_2730830349696"><path d="M48433.82 6398.65c-1161.78 0-2061.03 176.14-2829.78 554.4-1168.76 575.05-1923.66 1749.33-1961.42 3051.3l-5.25 179.66-3597.27-185.91c-76.07-3.99-151.78-5.89-226.76-5.89-78.52 0-156.67 1.99-234.19 6.16l-1894.31-2497.8-2.81-34.32c-169.43-2065.01-1924.1-3681.85-3994.82-3681.85h-.55c-108.12 0-217.79 4.43-325.92 13.31-1067.69 87.12-2037.3 584.92-2730.26 1401.58-692.87 816.3-1026.3 1853.56-938.91 2920.61l2.8 34.6-1856.45 3518.21a3514.568 3514.568 0 0 0-394.48 1926.64l75.26 919.45-1421.78 244.33c-1982.52 340.86-3446.85 1923.01-3732.11 3811.17-1376.41 1089.06-2131.94 2877.6-1814.26 4725.54l661.08 3845.13c-220.96 159.12-427.89 339.33-617.25 538.83-829.61 874.35-1269.09 2066.19-1205.79 3270.08 10.59 201.86 23 433.6 37.22 692.6-2189.99 601.58-4537.37 1693.9-6440.82 3649.07-2589.17 2659.35-3756.21 6303.17-3375.04 10537.8 357.16 3967.65 2076.87 7259.56 4973.13 9519.82 2438.66 1903.37 5326.31 2763.95 7862.41 3120.48 810.24 2832.68 1748.7 3876.28 2920.89 4489.82 2378.53 1244.91 8319.65 1506.18 12884.81 1506.18 2618.88 0 5171.64-103.42 7187.94-291.42 3555.52-331.45 4824.34-855.42 5596.63-1324.34 2009.68-1220.1 3069.4-3738.9 4036.57-15440.83 521.62-6310.69 795.29-13051.08 888.75-15656.1 43.56-1211.41-389.32-2365.76-1218.84-3250.16-118.9-126.69-243.78-245.6-374.18-356.53 18.29-94.45 36.22-188.45 54.06-281.82a3486.343 3486.343 0 0 0 95.45-615.26l492.28-7582.22 2523.42-7046.21c444.01-1239.75 157.57-2623.86-742.04-3585.5-2050.71-2192.16-7113.85-2640.52-8357.41-2640.61z" style="fill:#ddcac6;fill-rule:nonzero"/><path d="m51932.29 30074.74-1194.74-33.33c255.19-1176.54 499.97-2354.89 722.48-3537.59l5.61.99 524.25-8074.68 2689.78-7510.87c-968.89-1035.72-5848.02-1934.61-7069.48-1333.66l-231.47 7974.71-2147.79 6818.63 528.41-10222.83c25.27-489.02-350.64-905.95-839.57-931.22l-4606.19-238.08c-477.06-24.63-883.85 342.13-908.48 819.2l-594.7 11505.15-1066.97-13038.22-3015.79-3976.54-6.16.55-87.12-1064.98c-22.28-272.13-260.9-474.61-533.12-452.43-272.13 22.28-474.62 260.9-452.43 533.12l87.12 1064.88-6.07.55-2329.09 4413.93 760.25 9290.17c-215.9-824.99-445.01-1647.54-690.51-2467.37-129.69-432.87-547.98-704.46-991.26-667.06l-126.88-738.14c-97.26-565.82-634.81-945.62-1200.63-848.36l-2004.7 344.67c-565.81 97.17-945.61 634.73-848.35 1200.54l127.41 741.22c-384.87 114.92-658.63 457.23-681.18 859.32l-103.96 17.84c-781.8 134.39-1306.59 877.06-1172.2 1658.85l909.76 5291.9c35.77 207.75 233.1 347.21 440.84 311.44 207.65-35.68 347.11-233.01 311.43-440.75l-484.94-2820.82 229.65-1667.37c166.45 2187.9 437.31 4357.78 809.42 6510.28l-2405.7-67.2c-526.69-14.76-954.13 421.28-926.51 947.52 43.65 829.79 116.55 2145.88 218.98 3767.43-2133.12 204.12-5372.87 908.13-7613.93 3210.13-1878.55 1929.45-2683.44 4543.98-2392.93 7771.32 271.59 3016.97 1494.68 5394.05 3635.22 7064.59 2619.96 2044.91 6063.46 2544.52 8536.72 2596.69 493.72 2543.8 1064.25 4330.34 1714.1 4670.48 2815.47 1473.58 19787.21 1474.39 22216 0 2151.23-1305.95 3057.99-23224.83 3237.12-28219.06 19.92-555.13-416.48-1019.97-971.7-1035.54zM36118.44 12405.97z" class="fil2"/><path d="M34142.08 6777.91c254.84 0 471.09 195.7 492.28 454.06l87.12 1064.98 6.16-.55 3015.79 3976.54 1066.97 13038.22 594.7-11505.15c23.9-461.94 405.88-820.37 863.11-820.28 15.04 0 30.16.36 45.37 1.17l4606.19 237.99c488.93 25.27 864.84 442.2 839.57 931.22l-528.41 10222.74 2147.79-6818.63 231.47-7974.62c272.31-134.03 726.19-193.43 1278.24-193.43 1924.19.09 5038.42 722.29 5791.24 1527.09l-2689.78 7510.87-524.25 8074.68-5.61-.99c-222.51 1182.61-467.29 2361.05-722.48 3537.59l1194.74 33.33c555.22 15.57 991.71 480.41 971.7 1035.54-179.22 4994.32-1085.89 26913.02-3237.12 28218.97-1214.21 737.15-6063.01 1105.63-10960.89 1105.63-4899.05 0-9847.19-368.66-11255.11-1105.63-649.85-340.14-1220.38-2126.59-1714.1-4670.39-2473.26-52.26-5916.76-551.78-8536.72-2596.69-2140.54-1670.54-3363.63-4047.62-3635.22-7064.59-290.51-3227.25 514.38-5841.87 2392.93-7771.32 2241.06-2301.91 5480.81-3006.01 7613.93-3210.13-102.43-1621.55-175.33-2937.64-218.98-3767.43-27.16-517.54 385.78-947.97 900.61-947.97 8.61 0 17.3.18 25.9.45l2405.7 67.2c-372.11-2152.5-642.97-4322.29-809.42-6510.28l-229.65 1667.37 484.94 2820.82c35.68 207.74-103.78 405.07-311.52 440.75-21.83 3.8-43.65 5.61-65.12 5.61-182.38 0-343.67-131.22-375.63-317.14l-909.76-5291.72c-134.39-781.88 390.4-1524.55 1172.11-1658.94l104.05-17.84c22.55-402.09 296.31-744.49 681.18-859.41l-127.41-741.04c-97.26-565.9 282.54-1103.46 848.35-1200.72l2004.7-344.58c59.68-10.23 118.91-15.21 177.41-15.21 496.81.09 936.2 357.34 1023.22 863.57l126.88 738.05c27.26-2.26 54.33-3.35 81.23-3.35 412.22 0 788.31 264.25 910.03 670.5 245.5 819.83 474.61 1642.47 690.51 2467.28l-760.25-9290.08 2329.09-4413.84 6.07-.64-87.12-1064.88c-22.19-272.13 180.3-510.93 452.52-533.12 13.68-1.08 27.26-1.63 40.75-1.63zm0-3514.23h-.54c-108.13 0-217.79 4.44-325.92 13.32-1067.78 87.2-2037.3 585.01-2730.35 1401.58-692.78 816.29-1026.22 1853.56-938.92 2920.61l2.81 34.68L28292.7 11152c-312.15 591.62-448.99 1259.94-394.38 1926.64l75.25 919.44-1421.86 244.33c-1982.52 340.87-3446.77 1923.02-3732.03 3811.26-1376.4 1088.98-2131.93 2877.6-1814.34 4725.46l661.08 3845.13c-220.97 159.2-427.8 339.32-617.25 538.83-829.52 874.34-1269.01 2066.19-1205.8 3270.08 10.69 201.85 23.1 433.69 37.31 692.59-2189.98 601.59-4537.45 1693.91-6440.91 3649.07-2589.17 2659.36-3756.2 6303.27-3374.95 10537.89 357.17 3967.57 2076.79 7259.48 4973.14 9519.83 2438.66 1903.27 5326.31 2763.95 7862.41 3120.39 810.23 2832.68 1748.6 3876.28 2920.89 4489.91 2378.53 1244.82 8319.56 1506.17 12884.72 1506.17 2618.97 0 5171.73-103.51 7188.02-291.51 3555.44-331.44 4824.35-855.42 5596.55-1324.24 2009.77-1220.1 3069.49-3739 4036.66-15440.93 521.53-6310.69 795.29-13051.08 888.74-15656.1 43.56-1211.4-389.31-2365.76-1218.83-3250.06-118.9-126.7-243.78-245.69-374.19-356.53 18.3-94.55 36.23-188.46 53.98-281.91a3495.72 3495.72 0 0 0 95.54-615.26l492.27-7582.23 2523.43-7046.12c444.01-1239.84 157.57-2623.94-742.13-3585.58-2050.71-2192.16-7113.77-2640.43-8357.41-2640.52-1161.69 0-2060.94 176.04-2829.79 554.4-1168.75 574.96-1923.65 1749.24-1961.41 3051.2l-5.17 179.67-3597.27-185.92c-76.07-3.89-151.86-5.88-226.76-5.88-78.51 0-156.66 2.08-234.27 6.15l-1894.31-2497.7-2.81-34.41c-169.35-2065.02-1924.02-3681.86-3994.74-3681.86z" class="fil2"/><g id="_2730830347440"><path d="M41041.04 43798.93c272.68 14.04 482.32 246.59 468.19 519.26l-82.04 1588.5c-14.13 272.67-246.6 482.32-519.27 468.28-272.67-14.13-482.32-246.59-468.28-519.27l82.14-1588.58c14.13-272.67 246.59-482.32 519.26-468.19z" class="fil3"/><path d="m40404.32 12991.52 4422.36 228.57c540.36 27.98 955.76 488.66 927.86 1029.02l-1371.06 26525.61-6355.33-328.54 1372.24-26549.43c27.26-527.15 476.79-932.49 1003.93-905.23z" class="fil4"/><path d="m40488.72 44788.29 499.8 25.81 499.88 25.9 2895.08-4065.29-461.76-592.88-1166.4 508.67-1568.75-650.04-1530.17 489.84-1106.54-626.13-521.71 542z" class="fil5"/><path d="m42874.77 40696.65-238.98-12.49 1421.68-27503.91 238.99 12.49zm-3098.93-160.01-238.98-12.5 1421.68-27503.91 238.99 12.5z" style="fill:#db9a3d;fill-rule:nonzero"/><path d="M34311.7 9350.42c-272.13 22.28-510.84-180.3-533.12-452.43l-129.77-1585.33c-22.19-272.13 180.3-510.84 452.43-533.12 272.13-22.28 510.84 180.3 533.12 452.43l129.77 1585.42c22.19 272.13-180.3 510.75-452.43 533.03z" class="fil3"/><path d="m39037.06 39799.94-4413.47 361.15c-539.28 44.19-1012.18-357.26-1056.37-896.54L31400.77 12792.1l6342.66-519.08 2168.34 26496.27c43.11 526.15-348.56 987.54-874.71 1030.65z" style="fill:#aad1df;fill-rule:nonzero"/><path d="m34727.64 8296.49-498.89 40.76-498.88 40.84-2329.09 4413.93 536.48 526.24 1088.51-659.18 1641.19 435.77 1451.48-688.88 1179.98 473.53 445.01-606.47z" class="fil5"/><path d="m35112.97 40121.06-2246.31-27449.03 318.23-26.17 2246.3 27448.94zm3092.67-253.02-2246.31-27449.03 318.22-26.17 2246.32 27448.94z" style="fill:#80b6c6;fill-rule:nonzero"/><path d="M44077.39 47722.58c-817.56-154.23-1401.85-876.98-1386-1708.76 128.23-6754.88 880.68-13667.69 2257.18-20738.35l6511.46 1228.34c-1280.6 6806.22-3101.55 13510.39-5463.06 20112.68-282.72 790.67-1094.4 1261.76-1919.58 1106.09z" class="fil3"/><path d="m47378.72 17560.22-2430.15 7715.26 6517.07 1229.42 524.25-8074.77z" style="fill:#e2e8ed;fill-rule:nonzero"/><path d="m51989.89 18430.13-4611.17-869.91 231.47-7974.62c1221.46-600.95 6100.59 297.85 7069.48 1333.66l-2689.78 7510.87z" class="fil10"/><path d="m48440.88 17748.67-317.59-36.13 626.76-5495.03 317.59 36.14zm1841.61-2612.53-314.42-56.15 982.38-5494.39 314.51 56.15zm186.28 3015.61-310.71-75.53 1403.3-5780.1 310.71 75.53zm1111.88 220.24-305.09-95.45 2125.87-6809.03 305.09 95.44z" class="fil11"/><path d="M25754.62 28112.14c-335.07 0-632.01-241.43-691.06-582.11l-909.66-5292.17c-163.82-954.04 479.15-1863.89 1432.91-2027.98l569.71-97.62 107.94 629.57-569.43 97.62c-606.74 104.59-1015.8 683.26-911.57 1290.37l909.76 5291.9c5.89 33.69 41.47 54.88 71.99 50.53 33.78-5.88 56.51-38.39 50.9-71.99l-485.13-2820.73 629.57-108.58 485.12 2821c65.21 380.98-191.53 744.12-572.15 809.96-39.93 6.79-79.51 10.23-118.9 10.23zm7039.87 16326.14c-279.11 47.99-544.35-139.46-592.35-418.57l-249.22-1449.57c-47.99-279.11 139.37-544.35 418.57-592.26 279.19-48.09 544.35 139.37 592.34 418.47l249.22 1449.49c48 279.19-139.37 544.44-418.56 592.44zm-2751.73-21249.64-1789.35 307.63c-625.31 107.49-1219.38-312.25-1326.87-937.47l-609.37-3544.66c-107.49-625.22 312.25-1219.28 937.56-1326.78l1789.35-307.63c625.31-107.49 1219.38 312.25 1326.78 937.56l609.46 3544.57c107.49 625.31-312.25 1219.28-937.56 1326.78z" class="fil4"/><path d="m34468.82 37680.41-5516.4 948.33c-1873.48-5871.21-2944.25-11880.51-3212.21-18027.74-20.92-480.87 323.02-901.7 797.37-983.2l3860.07-663.71c472.72-81.23 935.21 201.31 1072.86 660.72 1764.08 5890.4 2763.58 11912.3 2998.31 18065.6z" class="fil3"/><path d="m32234.74 38064.47-1041.24 179.03-2241.07 385.24c958.3 2852.42 3011.63 4096.8 3011.63 4096.8l1041.25-179.04s1616.66-2004.34 1470.49-4867.27l-2241.06 385.24z" class="fil3"/><path d="M28563.66 37562.68c101.79 377.18 204.94 754.08 310.26 1130.54 6.88 24.81 31.51 40.39 56.96 36.04l5591.38-961.19c25.45-4.44 43.47-27.53 41.57-53.25-28.35-389.77-58.78-779.17-90.47-1168.3-2.45-29.34-29.61-50.44-58.59-45.46l-5811.08 999.04c-29.16 5.08-47.72 34.05-40.03 62.58z" class="fil4"/><path d="M49666.87 59329.24c-2428.79 1474.48-19400.53 1473.67-22216 0-2503.78-1310.48-3834.27-24060.51-4098.16-29080.46-27.62-526.24 399.73-962.37 926.51-947.7 9241.63 1048.31 18460.17 1334.21 27653.07 773.65 555.22 15.57 991.62 480.32 971.79 1035.45-179.22 4994.32-1085.98 26913.2-3237.21 28219.06z" class="fil10"/><path d="M26195.73 54663.83c-2491.55.27-6209.53-426.99-8995.67-2601.67-2140.54-1670.45-3363.63-4047.62-3635.22-7064.59-290.51-3227.25 514.38-5841.96 2392.93-7771.32 3529.63-3625.61 9541.2-3289.19 9794.76-3274.88l-197.41 3187.77c-48-3.08-4823.53-250.22-7317.44 2323.65-1209.68 1248.26-1697.61 2964.9-1492.04 5248.34 191.71 2127.41 980.3 3706.3 2410.95 4826.88 3388.8 2654.01 9190.64 1801.13 9248.78 1792.89l492 3155.61c-110.84 17.3-1176.72 177.32-2701.64 177.32z" class="fil10"/><path d="M39618 52734.02S25677.09 40991.6 30324.03 37843.69c4647.03-3147.92 9793.67 4247.21 9793.67 4247.21s3797.5-6695.66 7495.11-4447.08C51310.42 39892.4 39618 52734.02 39618 52734.02z" class="fil2"/><path d="m23626.57 37213.94-214.26-3187.86 318.77-21.19 214.35 3187.86zm1953.36 17476.15-534.12-3221.54 315.15-52.44 534.11 3221.54z" class="fil11"/></g></g></g></svg>